<svg xmlns="http://www.w3.org/2000/svg" xmlns:xlink="http://www.w3.org/1999/xlink" version="1.1" width="1000" height="300" viewBox="100 100" xml:space="preserve">
<desc>Created with Fabric.js 3.5.0</desc>
<defs>
</defs>
<rect x="0" y="0" width="100%" height="100%" fill="none"/>
<g transform="matrix(1 0 0 1 565.647 153.2359)" style="" id="622926">
		
<path xml:space="preserve" font-family="AttackGraffiti ZVJPZ" font-size="121" style="stroke: rgb(77,10,98); stroke-width: 5; stroke-dasharray: none; stroke-linecap: butt; stroke-dashoffset: 0; stroke-linejoin: miter; stroke-miterlimit: 4; is-custom-font: true; font-file-url: https://cdn.pixelied.com/user-assets/fonts/f9dcbca2-3c70-47b6-a73e-64672bf11c84.otf; fill: rgb(255,255,255); fill-rule: nonzero; opacity: 1; white-space: pre;" d="M-304.38-12.93C-304.38-19.22-308.73-27.69-308.73-34.71C-308.73-41.85-304.25-47.29-286.23-47.29L-285.02-47.29C-285.02-40.52-285.14-33.74-285.14-26.85C-285.14-25.51-285.02-22.01-283.93-22.01C-282.35-22.01-282.23-24.06-282.23-25.03C-282.23-32.53-282.96-39.79-283.20-47.17C-261.42-45.96-248.59-32.29-248.59-17.77C-248.59-10.63-251.98-5.31-259.36-5.31C-260.09-5.43-271.58-7.49-279.33-8.33C-283.08-21.88-289.73-30.96-296.39-30.96C-300.14-30.96-303.17-28.18-303.17-24.30C-303.17-23.94-303.17-23.34-303.04-22.97C-297.72 4.98-296.51-1.56-293.36 34.50C-293.00 38.98-289.37 42.73-284.41 42.73C-277.76 42.73-276.30 25.91-276.30 14.78C-276.30 12.00-276.55 9.09-276.79 6.43C-273.28 6.55-270.01 6.55-266.87 6.55C-246.42 6.55-236.86-7.12-236.86-22.97C-236.86-44.27-253.43-60.24-285.26-60.24C-306.07-60.24-325.43-49.35-325.43-29.02C-325.43-19.46-321.07-11.96-315.75-7.00C-314.42-5.79-312.72-5.31-311.15-5.31C-307.04-5.31-304.38-8.82-304.38-12.93ZM-318.90-29.87C-319.14-27.69-319.62-26.85-320.11-26.85C-320.71-26.85-321.32-28.30-321.32-30.23L-321.32-31.44C-319.14-48.50-304.01-55.64-285.62-56.49L-284.77-56.49C-282.84-56.49-281.14-56.25-281.14-55.89C-281.14-55.64-281.99-55.40-284.17-55.28C-302.32-54.07-316.96-46.81-318.90-29.87ZM-195.72-28.06L-195.60-28.18L-194.27-28.18C-171.40-28.18-158.33-10.15-158.33 6.07C-158.33 23.01-169.94 30.02-183.38 30.02C-207.09 30.02-223.67 11.87-223.67-5.55C-223.67-16.44-217.26-26.97-201.89-32.53C-200.92-30.23-198.62-28.06-195.72-28.06ZM-170.07-0.71C-168.13-0.71-167.04-4.46-167.04-7.49C-167.04-17.41-179.75-25.27-189.18-25.27C-192.21-25.27-199.95-24.91-199.95-22.37C-199.95-21.76-199.47-21.16-198.26-21.16C-196.08-21.16-194.02-21.64-192.09-21.64C-177.33-21.64-171.88-11.12-171.88-4.22C-171.88-1.68-171.40-0.71-170.07-0.71ZM-230.32-22.97C-230.69-22.49-230.93-22.37-231.17-22.37C-231.41-22.37-231.53-22.61-231.53-23.09C-231.53-23.58-231.41-24.06-231.17-24.55C-223.79-36.04-209.15-43.66-202.25-43.66C-201.65-43.66-201.16-43.30-201.16-42.58C-201.16-42.21-201.89-41.73-203.95-41.00C-217.26-36.65-222.58-32.90-230.32-22.97ZM-141.39 4.61C-141.39-17.41-156.76-41.37-183.25-47.17C-184.10-51.65-188.46-55.16-193.30-55.16C-208.06-55.16-219.68-51.17-228.02-44.51C-238.43-36.16-243.39-23.94-243.39-11.48C-243.39 14.78-221.49 42.73-182.65 42.73L-179.02 42.73C-169.70 42.73-160.99 40.67-154.21 35.95C-154.21 40.79-154.34 45.63-154.34 50.72C-154.34 52.05-154.21 55.56-153.13 55.56C-151.55 55.56-151.43 53.50-151.43 52.53C-151.43 46.36-151.79 40.43-152.16 34.38C-145.50 28.81-141.39 20.22-141.39 8.24ZM-187.13-47.42C-187.97-47.78-188.82-47.90-189.67-47.90C-221.37-47.90-236.13-28.66-236.13-7.85C-236.13 3.53-231.78 15.26-223.31 24.58C-234.07 14.78-239.76 1.35-239.76-11.48C-239.76-32.29-225.00-51.53-193.30-51.53C-190.51-51.53-188.09-49.71-187.13-47.42ZM-183.38-43.42C-172.97-41.00-164.38-35.56-158.09-28.54C-164.62-34.47-173.09-38.82-183.01-40.52C-183.01-40.76-182.89-41.00-182.89-41.24C-182.89-41.97-183.13-42.70-183.38-43.42ZM-73.51 34.50C-73.51 33.05-73.87 31.72-74.72 30.63C-83.19 19.01-95.29 7.16-97.95 1.47C-98.31 0.26-99.89-0.47-101.22-0.47C-103.15-0.47-104.85 1.11-104.85 2.92C-104.85 3.16-104.73 3.40-104.73 3.65C-105.81 1.71-106.42-0.47-109.20-0.47C-111.26-0.47-112.71 0.98-112.71 3.04C-112.71 3.53-112.59 4.01-112.35 4.49C-110.53 8.37-106.66 16.84-101.82 25.55C-104.00 25.31-106.54 25.18-111.86 25.18L-116.70 25.18C-116.83-14.99-119.25-29.75-126.87-54.07C-127.72-56.61-130.26-58.67-133.28-58.67C-134.73-58.67-136.19-58.18-137.27-57.34C-138.36-58.18-139.82-58.67-141.27-58.67C-144.90-58.67-147.92-55.64-147.92-52.01C-147.92-51.29-147.92-50.56-147.68-49.96C-143.08-35.19-142.36-23.09-142.36-5.31C-142.36 1.23-142.48 8.61-142.48 17.08L-142.48 27.85C-142.48 28.45-142.36 29.06-142.24 29.66C-146.47 31.84-149.01 34.99-149.01 39.46L-149.01 40.19C-149.01 43.82-145.99 46.84-142.36 46.84C-142.36 46.84-134.61 46.12-129.65 44.91L-129.65 46.84C-129.65 48.17-129.53 51.68-128.44 51.68C-126.87 51.68-126.75 49.63-126.75 48.66C-126.75 47.21-126.87 45.63-126.87 44.18C-117.79 42.00-106.90 39.34-94.92 39.34L-94.20 39.34L-91.90 40.19C-90.81 40.91-89.48 41.28-88.15 41.28C-86.70 41.28-85.37 40.79-84.16 39.95C-82.95 40.79-81.61 41.28-80.16 41.28C-76.53 41.28-73.51 38.13-73.51 34.50ZM-143.20-44.87C-143.32-45.60-143.32-46.21-143.32-46.81C-143.32-48.38-142.84-49.23-142.11-49.23C-141.27-49.23-140.18-48.14-139.69-45.84C-138.12-39.19-137.03-34.35-136.55-19.22L-136.55-18.86C-136.55-16.44-137.64-15.11-138.73-15.11C-139.82-15.11-140.78-16.32-140.90-18.86C-141.39-33.62-141.75-38.34-143.20-44.87ZM-80.16 37.65C-80.77 37.65-81.37 37.41-81.86 37.16C-81.49 36.32-81.25 35.35-81.25 34.38C-81.25 32.20-82.34 30.27-83.91 29.06C-87.42 24.34-91.42 19.74-95.05 15.50C-97.22 11.39-98.92 7.64-100.13 4.98C-99.40 6.19-98.55 7.52-97.47 8.85C-91.29 16.47-83.55 24.70-77.62 32.81C-77.26 33.29-77.14 33.78-77.14 34.50C-77.14 36.32-78.35 37.65-80.16 37.65ZM-124.69 25.55C-124.81-14.87-127.23-29.75-134.85-54.07C-134.85-54.19-134.98-54.31-134.98-54.43C-134.49-54.80-133.89-55.04-133.28-55.04C-132.07-55.04-130.74-54.07-130.38-52.98C-122.88-29.02-120.82-14.87-120.33 25.31C-121.79 25.43-123.24 25.43-124.69 25.55ZM-67.34 41.52C-62.62 41.52-58.38 37.53-54.27 32.93C-54.27 38.01-54.39 43.09-54.39 48.30C-54.39 49.63-54.27 53.14-53.18 53.14C-51.61 53.14-51.49 51.08-51.49 50.11C-51.49 43.58-51.97 37.04-52.33 30.63C-34.79 10.18-17.97-19.95-10.22-39.43C-9.98-39.91-9.98-40.52-9.98-41.00C-9.98-43.18-11.43-45.24-13.37-46.69C-13.37-47.17-13.25-47.78-13.25-48.14C-13.25-52.01-17.97-55.64-21.84-55.64C-24.26-55.64-26.20-54.07-27.04-51.89C-31.40-40.76-39.75-27.33-48.46-15.35C-56.57-21.04-65.28-27.69-78.47-37.74C-79.68-38.70-81.25-39.19-82.70-39.19C-85.49-39.19-88.87-36.89-88.87-33.62C-88.87-29.87-84.76-25.15-79.68-20.80C-73.27-15.23-64.43-9.54-56.08-5.31C-57.29-3.86-58.50-2.52-59.59-1.19C-59.83-0.95-70.12 8.85-74.72 14.29C-77.86 18.05-80.28 21.92-80.28 25.43C-80.28 27.73-78.95 30.02-77.02 31.84L-77.02 32.44C-77.02 36.68-72.30 41.52-67.34 41.52ZM-20.63-45.12C-20.63-42.82-25.59-29.99-28.37-26.85C-28.98-26.12-29.58-25.64-30.07-25.64C-30.43-25.64-30.67-25.88-30.79-26.12C-30.79-26.12-22.32-43.66-20.99-45.24C-20.87-45.36-20.87-45.48-20.75-45.48C-20.63-45.48-20.63-45.36-20.63-45.12ZM-42.77-11.48C-43.62-12.08-44.59-12.57-45.44-13.17C-36.60-25.27-28.13-38.95-23.66-50.56C-23.29-51.41-22.93-52.01-21.84-52.01C-20.99-52.01-19.66-51.53-18.45-50.56C-17.36-49.71-17.00-48.87-16.88-48.38C-17.48-48.50-18.09-48.63-18.57-48.63C-20.99-48.63-22.93-47.05-23.78-44.87C-27.77-34.71-34.91-22.61-42.77-11.48ZM-49.67-2.28C-51.97 0.62-54.15 3.40-56.33 5.95C-56.57 6.19-66.85 15.99-71.45 21.43C-73.27 23.61-74.84 25.79-75.81 27.85C-76.29 27.12-76.65 26.27-76.65 25.43C-76.65 24.94-76.53 24.22-76.29 23.61C-75.69 21.68-74.11 19.26-71.93 16.71C-68.06 12.24-59.59 3.89-57.54 1.95C-55.84 0.26-54.27-1.80-52.70-3.73C-51.61-3.25-50.64-2.77-49.67-2.28ZM46.89-57.22L47.01-57.22C48.22-57.22 49.31-55.89 49.31-54.80C49.31-54.19 48.94-53.59 47.86-53.59C32.61-52.86 16.15-47.29 3.33-36.89C1.75-35.56 0.42-35.07-0.30-35.07C-0.91-35.07-1.27-35.44-1.27-36.04C-1.27-37.01-0.30-38.58 1.63-40.16C14.58-50.80 31.40-56.49 46.89-57.22ZM45.92 4.74C46.16 5.22 46.65 5.58 47.01 5.95C48.82 10.30 50.15 16.35 50.15 24.70C50.15 31.96 39.99 37.53 28.50 38.01L26.56 38.01C17.12 38.01 7.80 35.23 1.15 29.54C-1.27 25.55-2.72 20.83-2.72 15.38C-2.72-27.93 35.27-35.19 58.26-39.31C61.29-39.79 63.71-42.70 63.71-45.96C63.71-49.47 61.17-51.77 58.02-52.86C57.78-57.70 52.70-60.24 47.98-60.24C16.64-59.39-21.11-37.98-21.11 4.61C-21.11 22.64-15.06 36.07-5.75 45.03C3.81 58.46 19.18 65.11 35.27 65.11C56.08 65.11 75.44 54.10 75.44 33.78C75.44 20.34 69.51 10.06 62.13 3.04C61.65 2.44 61.29 1.71 60.80 1.11C70.48-2.04 77.50-6.40 77.50-9.66C77.50-11.96 75.81-13.78 73.39-13.78L72.78-13.78C55.72-10.99 49.91-9.30 22.93-7.85C19.54-7.61 16.64-5.07 16.64-1.19C16.64 2.32 19.78 4.25 24.38 5.10C24.38 10.66 24.26 16.35 24.26 22.04C24.26 23.37 24.38 26.88 25.47 26.88C27.04 26.88 27.16 24.82 27.16 23.85C27.16 17.68 26.68 11.51 26.32 5.46C28.37 5.70 30.79 5.82 33.09 5.82C33.09 5.82 41.56 5.46 45.92 4.74ZM69.03 19.26C70.72 23.49 71.81 28.33 71.81 33.78C71.81 40.43 69.51 45.75 65.64 49.99C59.35 56.89 48.10 61.48 35.27 61.48C26.56 61.48 18.33 59.43 11.07 55.31C16.88 57.49 23.17 58.46 29.58 58.46C50.40 58.46 69.76 47.57 69.76 27.24C69.76 24.46 69.51 21.80 69.03 19.26ZM57.17-49.35C58.75-48.75 60.08-47.90 60.08-45.96C60.08-44.51 58.87-43.06 57.54-42.82C47.25-41.00 33.82-38.58 21.72-32.29C5.75-23.94-6.35-9.30-6.35 15.38C-6.35 17.08-6.23 18.65-5.99 20.22C-7.56 16.84-8.41 13.08-8.41 8.85C-8.41-34.47 29.58-41.73 52.57-45.84C54.51-46.21 56.20-47.54 57.17-49.35ZM108.96-28.06L109.08-28.18L110.41-28.18C133.28-28.18 146.35-10.15 146.35 6.07C146.35 23.01 134.73 30.02 121.30 30.02C97.59 30.02 81.01 11.87 81.01-5.55C81.01-16.44 87.42-26.97 102.79-32.53C103.76-30.23 106.06-28.06 108.96-28.06ZM134.61-0.71C136.55-0.71 137.64-4.46 137.64-7.49C137.64-17.41 124.93-25.27 115.49-25.27C112.47-25.27 104.73-24.91 104.73-22.37C104.73-21.76 105.21-21.16 106.42-21.16C108.60-21.16 110.65-21.64 112.59-21.64C127.35-21.64 132.80-11.12 132.80-4.22C132.80-1.68 133.28-0.71 134.61-0.71ZM74.35-22.97C73.99-22.49 73.75-22.37 73.51-22.37C73.27-22.37 73.14-22.61 73.14-23.09C73.14-23.58 73.27-24.06 73.51-24.55C80.89-36.04 95.53-43.66 102.43-43.66C103.03-43.66 103.52-43.30 103.52-42.58C103.52-42.21 102.79-41.73 100.73-41.00C87.42-36.65 82.10-32.90 74.35-22.97ZM163.29 4.61C163.29-17.41 147.92-41.37 121.42-47.17C120.58-51.65 116.22-55.16 111.38-55.16C96.62-55.16 85.00-51.17 76.65-44.51C66.25-36.16 61.29-23.94 61.29-11.48C61.29 14.78 83.19 42.73 122.03 42.73L125.66 42.73C134.98 42.73 143.69 40.67 150.46 35.95C150.46 40.79 150.34 45.63 150.34 50.72C150.34 52.05 150.46 55.56 151.55 55.56C153.13 55.56 153.25 53.50 153.25 52.53C153.25 46.36 152.88 40.43 152.52 34.38C159.18 28.81 163.29 20.22 163.29 8.24ZM117.55-47.42C116.70-47.78 115.86-47.90 115.01-47.90C83.31-47.90 68.55-28.66 68.55-7.85C68.55 3.53 72.90 15.26 81.37 24.58C70.60 14.78 64.92 1.35 64.92-11.48C64.92-32.29 79.68-51.53 111.38-51.53C114.16-51.53 116.58-49.71 117.55-47.42ZM121.30-43.42C131.71-41.00 140.30-35.56 146.59-28.54C140.06-34.47 131.59-38.82 121.67-40.52C121.67-40.76 121.79-41.00 121.79-41.24C121.79-41.97 121.54-42.70 121.30-43.42ZM165.59-6.88C167.04-8.33 167.89-10.03 167.89-11.96C167.89-13.78 167.28-15.59 165.83-16.92C162.81-19.71 160.39-23.70 160.39-29.02C160.39-33.86 162.32-37.25 164.74-39.91C169.46-44.75 177.45-47.29 186.16-47.29C189.67-47.29 193.30-46.81 196.93-45.96C196.20-45.96 195.35-46.08 194.63-46.08C187.01-46.08 179.62-44.27 174.06-40.40C169.34-37.13 165.23-31.93 165.23-24.18C165.23-17.65 168.13-12.81 171.76-9.42C172.36-8.82 172.36-7.12 172.61-6.15C172.24-4.94 171.03-4.10 169.70-4.10C167.77-4.10 166.56-5.79 165.59-6.88ZM153.49-29.87C153.25-27.69 152.76-26.85 152.28-26.85C151.67-26.85 151.07-28.30 151.07-30.23L151.07-31.44C153.25-48.50 168.37-55.64 186.76-56.49L187.61-56.49C189.55-56.49 191.24-56.25 191.24-55.89C191.24-55.64 190.39-55.40 188.22-55.28C170.07-54.07 155.42-46.81 153.49-29.87ZM170.55-16.92C169.58-18.98 168.86-21.40 168.86-24.18C168.86-36.16 180.96-42.45 194.63-42.45C198.38-42.45 202.13-41.97 205.88-41.00C205.88-34.71 205.76-28.54 205.76-22.13C205.76-20.80 205.88-17.29 206.97-17.29C208.54-17.29 208.66-19.34 208.66-20.31C208.66-27.09 208.18-33.74 207.82-40.52C209.39-40.03 210.96-39.43 212.54-38.82C219.92-33.26 225.00-24.79 225.00-13.41C225.00 4.86 208.18 22.64 193.30 32.57C192.81 12.96 185.67-30.96 175.99-30.96C172.24-30.96 169.22-28.18 169.22-24.30C169.22-21.64 170.19-19.22 170.55-16.92ZM179.62 39.95C173.57 42.85 173.21 42.61 164.14 44.18C161.11 44.67 158.69 47.45 158.69 50.72C158.69 55.43 163.17 58.10 167.77 58.46C169.34 61.73 173.33 63.30 177.20 63.30C210.60 63.30 245.93 25.43 245.93-8.94C245.93-30.11 234.20-43.79 219.31-50.44C210.00-57.10 198.38-60.24 187.13-60.24C166.31-60.24 146.95-49.35 146.95-29.02C146.95-19.46 151.31-11.96 156.63-7.00C157.97-5.79 159.66-5.31 161.23-5.31L162.20-5.31C162.68-4.70 163.17-4.10 163.77-3.49C163.77 3.53 163.65 10.42 163.65 17.56C163.65 18.89 163.77 22.40 164.86 22.40C166.44 22.40 166.56 20.34 166.56 19.38C166.56 12.24 165.95 5.22 165.59-1.80C166.80-0.83 168.25-0.47 169.70-0.47C169.70-0.47 172.49-0.71 173.57-1.56C176.24 12.12 178.05 22.52 179.62 39.95ZM230.81-38.22C237.58-31.44 242.30-21.88 242.30-8.94C242.30 8.85 232.02 28.21 217.13 41.88C205.28 52.77 190.88 59.67 177.20 59.67C175.39 59.67 173.57 59.19 172.36 58.34C197.05 56.40 221.97 34.62 232.38 9.70C235.28 4.01 236.98-1.92 237.10-8.09C237.34-10.03 237.46-11.84 237.46-13.78C237.46-23.46 234.92-31.56 230.81-38.22ZM236.37-29.99C236.37-16.08 247.02-8.45 259.48-2.89C269.77 3.28 283.44 6.91 293.61 11.15C297.24 13.57 299.54 16.47 299.54 20.10C299.54 26.15 296.03 28.45 290.82 28.45C274.00 28.45 238.43 4.74 238.43 4.74C234.80 4.74 231.78 7.76 231.78 11.39C231.78 19.01 236.37 25.31 243.39 30.02C243.39 34.38 243.27 38.86 243.27 43.33C243.27 44.67 243.39 48.17 244.48 48.17C246.05 48.17 246.17 46.12 246.17 45.15C246.17 40.55 245.93 35.95 245.69 31.36C247.75 32.57 249.93 33.78 252.35 34.74C262.75 41.40 278.12 44.79 291.91 44.79C309.34 44.79 324.46 39.34 324.46 27.48C324.46 16.35 315.75 10.30 304.86 5.46C295.91-0.10 283.20-3.49 272.67-8.09C266.02-12.20 261.42-17.65 261.42-25.51C261.42-30.23 264.08-31.93 267.95-31.93C269.77-31.93 272.07-31.32 274.37-30.48C283.93-24.55 293.00-16.20 293.00-16.20C298.57-16.20 300.38-28.42 300.38-32.41C300.38-35.07 299.78-36.89 298.57-36.89C297.24-36.89 295.18-34.59 292.52-28.78C288.89-32.41 266.87-46.93 251.50-46.93C242.91-46.93 236.37-39.79 236.37-29.99ZM253.56-44.63C255.98-44.63 256.22-44.03 256.22-42.82C256.22-42.58 255.98-42.45 255.37-42.45C253.19-42.45 253.68-42.58 252.22-42.58L251.86-42.58C247.75-42.45 242.79-42.21 242.79-32.17C242.79-31.69 242.91-30.72 242.91-29.87C242.91-28.66 242.79-27.57 242.06-27.57C241.09-27.57 240.73-33.26 240.73-34.35C240.73-41.61 245.09-44.63 253.31-44.63ZM257.79-25.51C257.79-21.64 258.88-18.13 260.45-15.23C256.10-18.86 253.31-23.46 253.31-29.63C253.31-34.35 255.98-36.16 259.85-36.16C261.30-36.16 262.99-35.80 264.81-35.19C260.45-34.23 257.79-30.23 257.79-25.51ZM314.42 15.14C318.53 18.53 320.83 22.16 320.83 27.48C320.83 30.27 319.74 32.44 317.44 34.50C312.24 39.22 302.20 41.16 291.91 41.16C291.79 41.16 285.62 41.04 282.47 40.67L283.81 40.67C301.23 40.67 316.35 35.11 316.35 23.25C316.35 20.10 315.63 17.56 314.42 15.14Z"/></g>
<g transform="matrix(2.2851 0 0 2.2851 390.8736 143.4682)" id="248262">
<g style="" vector-effect="non-scaling-stroke">
		<g transform="matrix(1 0 0 1 -119.9992 0.0001)">
<path style="stroke: none; stroke-width: 1; stroke-dasharray: none; stroke-linecap: butt; stroke-dashoffset: 0; stroke-linejoin: miter; stroke-miterlimit: 4; is-custom-font: none; font-file-url: none; fill: rgb(127,70,240); fill-rule: nonzero; opacity: 1;" transform=" translate(-45.0008, -54.7786)" d="M 17.911 10.141 c 0.137 0 0.272 -0.01 0.404 -0.027 l 3.974 16.154 l 0.13 0.524 l 0.194 0.504 S 25.44 34.564 45 34.564 s 22.385 -7.268 22.385 -7.268 a 10.18 10.18 0 0 0 0.305 -0.963 l 4.006 -16.266 a 2.98 2.98 0 0 0 3.643 -2.899 a 2.98 2.98 0 0 0 -2.975 -2.976 a 2.98 2.98 0 0 0 -2.978 2.976 a 2.97 2.97 0 0 0 0.565 1.743 l -6.939 5.457 a 0.35 0.35 0 0 1 -0.587 -0.154 l -3.24 -8.776 c -0.097 -0.261 -0.337 -0.309 -0.536 -0.103 l -7.29 7.543 c -0.199 0.204 -0.475 0.172 -0.614 -0.073 l -4.167 -7.311 a 2.97 2.97 0 0 0 1.393 -2.52 C 47.971 1.331 46.64 0 44.998 0 s -2.976 1.332 -2.976 2.975 c 0 1.062 0.556 1.992 1.392 2.52 l -4.165 7.311 c -0.139 0.245 -0.415 0.277 -0.613 0.073 l -7.29 -7.543 c -0.198 -0.205 -0.438 -0.157 -0.536 0.103 l -3.241 8.776 c -0.096 0.262 -0.359 0.332 -0.586 0.154 l -6.767 -5.321 a 2.96 2.96 0 0 0 0.668 -1.878 a 2.98 2.98 0 0 0 -2.975 -2.976 a 2.98 2.98 0 0 0 -2.976 2.976 a 2.98 2.98 0 0 0 2.979 2.971 z m 72.002 62.471 l -6.934 -11.515 c -0.145 -0.24 -0.127 -0.625 0.043 -0.85 l 4.364 -5.916 c 0.17 -0.228 0.188 -0.61 0.043 -0.85 L 74.735 32.318 a 1.91 1.91 0 0 0 -0.743 -0.656 l -4.769 -2.147 c -0.265 -0.121 -0.632 -0.043 -0.816 0.173 c 0 0 -1.636 1.895 -3.667 3.064 c -4.423 2.547 -11.066 3.902 -19.741 3.902 c -8.656 0 -15.316 -1.385 -19.794 -3.99 c -1.846 -1.074 -3.588 -2.989 -3.588 -2.989 a 0.77 0.77 0 0 0 -0.828 -0.166 l -4.782 2.154 a 1.94 1.94 0 0 0 -0.744 0.656 L 2.572 53.482 a 0.83 0.83 0 0 0 0.042 0.85 l 4.365 5.916 a 0.83 0.83 0 0 1 0.042 0.85 L 0.089 72.613 a 0.74 0.74 0 0 0 0.08 0.819 l 22.157 24.865 c 0.188 0.214 0.562 0.293 0.829 0.182 l 4.7 -1.982 c 0.267 -0.113 0.486 0.022 0.486 0.3 v 4.629 a 0.88 0.88 0 0 0 0.477 0.726 l 15.705 7.315 a 1.31 1.31 0 0 0 0.955 0 l 15.705 -7.315 a 0.88 0.88 0 0 0 0.477 -0.726 v -4.629 c 0 -0.279 0.22 -0.413 0.487 -0.3 l 4.699 1.982 a 0.79 0.79 0 0 0 0.831 -0.182 l 22.155 -24.865 c 0.188 -0.21 0.224 -0.581 0.081 -0.821 z M 32.118 89.131 l -4.801 -5.101 a 0.53 0.53 0 0 1 0.122 -0.728 l 7.639 -7.233 c 0.231 -0.171 0.635 -0.209 0.897 -0.084 l 7.756 3.651 c 0.263 0.125 0.477 0.452 0.477 0.731 v 6.961 c 0 0.279 -0.237 0.539 -0.527 0.582 l -10.739 1.564 c -0.29 0.042 -0.661 -0.11 -0.826 -0.342 z m 22.293 6.005 c 0 0.277 -0.223 0.587 -0.497 0.685 l -8.417 3.023 c -0.274 0.096 -0.722 0.096 -0.997 0 l -8.418 -3.023 c -0.273 -0.098 -0.497 -0.408 -0.497 -0.685 v -3.772 c 0 -0.282 0.237 -0.54 0.527 -0.582 l 3.62 -0.529 c 0.698 1.497 2.429 3.492 5.267 3.492 s 4.568 -1.994 5.266 -3.492 l 3.621 0.529 c 0.287 0.041 0.524 0.3 0.524 0.582 v 3.772 z m 8.272 -11.108 l -4.801 5.101 a 0.94 0.94 0 0 1 -0.824 0.341 l -10.74 -1.564 c -0.289 -0.043 -0.527 -0.303 -0.527 -0.582 v -6.961 c 0 -0.279 0.214 -0.605 0.479 -0.726 l 7.766 -3.651 c 0.261 -0.123 0.663 -0.081 0.896 0.086 l 7.631 7.226 c 0.23 0.175 0.285 0.502 0.121 0.73 z m 9.829 -26.063 l -6.023 6.58 c -0.192 0.209 -0.219 0.57 -0.058 0.802 l 4.997 7.259 a 0.84 0.84 0 0 1 0.016 0.853 l -5.22 8.184 a 0.48 0.48 0 0 1 -0.696 0.125 l -9.702 -7.144 c -0.231 -0.171 -0.42 -0.536 -0.417 -0.812 l 0.078 -8.971 c 0.001 -0.277 0.22 -0.603 0.482 -0.726 l 9.774 -4.559 c 0.262 -0.121 0.364 -0.423 0.23 -0.668 l -2.131 -3.834 a 0.49 0.49 0 0 0 -0.694 -0.169 l -10.317 6.383 a 1.03 1.03 0 0 0 -0.443 0.781 v 10.264 c 0 0.277 -0.233 0.567 -0.513 0.641 l -6.362 1.692 c -0.282 0.076 -0.743 0.076 -1.025 0 l -6.361 -1.692 c -0.282 -0.075 -0.513 -0.365 -0.513 -0.641 v -10.26 c 0 -0.277 -0.201 -0.63 -0.445 -0.781 l -10.317 -6.383 a 0.49 0.49 0 0 0 -0.694 0.169 l -2.131 3.834 c -0.137 0.245 -0.033 0.548 0.23 0.668 l 9.773 4.559 c 0.263 0.123 0.48 0.449 0.482 0.726 l 0.078 8.971 a 1.14 1.14 0 0 1 -0.416 0.812 l -9.703 7.145 c -0.231 0.169 -0.544 0.113 -0.695 -0.125 l -5.222 -8.184 a 0.84 0.84 0 0 1 0.016 -0.853 l 4.998 -7.259 a 0.68 0.68 0 0 0 -0.058 -0.802 l -6.023 -6.58 a 0.72 0.72 0 0 1 -0.078 -0.816 l 5.001 -8.021 c 0.149 -0.239 0.474 -0.314 0.723 -0.166 l 14.355 8.477 c 0.249 0.146 0.452 0.038 0.452 -0.239 v -2.439 c 0 -0.278 -0.173 -0.661 -0.385 -0.853 l -11.137 -10.03 a 0.61 0.61 0 0 1 -0.098 -0.771 l 0.204 -0.3 c 0.159 -0.234 0.509 -0.333 0.778 -0.224 l 17.212 7.081 a 1.49 1.49 0 0 0 0.976 0 l 17.21 -7.083 a 0.67 0.67 0 0 1 0.776 0.224 l 0.205 0.3 a 0.61 0.61 0 0 1 -0.098 0.771 l -11.137 10.03 a 1.32 1.32 0 0 0 -0.385 0.853 v 2.439 c 0 0.278 0.204 0.385 0.452 0.239 l 14.355 -8.477 c 0.249 -0.148 0.575 -0.073 0.722 0.166 l 5.001 8.021 a 0.72 0.72 0 0 1 -0.079 0.815 z" stroke-linecap="round"/>
</g>
		<g transform="matrix(1 0 0 1 -165 -54.7785)">
<path style="stroke: none; stroke-width: 1; stroke-dasharray: none; stroke-linecap: butt; stroke-dashoffset: 0; stroke-linejoin: miter; stroke-miterlimit: 4; is-custom-font: none; font-file-url: none; fill: rgb(0,0,0); fill-rule: nonzero; opacity: 1;" transform=" translate(0, 0)" d="" stroke-linecap="round"/>
</g>
</g>
</g>
</svg>