<svg xmlns="http://www.w3.org/2000/svg" xmlns:xlink="http://www.w3.org/1999/xlink" version="1.1" width="1000" height="1000" viewBox="0 0 1000 1000" xml:space="preserve">
<desc>Created with Fabric.js 3.5.0</desc>
<defs>
</defs>
<rect x="0" y="0" width="100%" height="100%" fill="#ffffff"/>
<g transform="matrix(2.7548 0 0 2.7548 521.8944 499.9988)" id="899344">
<g style="" vector-effect="non-scaling-stroke">
		<g transform="matrix(1 0 0 1 -119.9992 0.0001)">
<path style="stroke: none; stroke-width: 1; stroke-dasharray: none; stroke-linecap: butt; stroke-dashoffset: 0; stroke-linejoin: miter; stroke-miterlimit: 4; is-custom-font: none; font-file-url: none; fill: rgb(127,70,240); fill-rule: nonzero; opacity: 1;" transform=" translate(-45.0008, -54.7786)" d="M 17.911 10.141 c 0.137 0 0.272 -0.01 0.404 -0.027 l 3.974 16.154 l 0.13 0.524 l 0.194 0.504 S 25.44 34.564 45 34.564 s 22.385 -7.268 22.385 -7.268 a 10.18 10.18 0 0 0 0.305 -0.963 l 4.006 -16.266 a 2.98 2.98 0 0 0 3.643 -2.899 a 2.98 2.98 0 0 0 -2.975 -2.976 a 2.98 2.98 0 0 0 -2.978 2.976 a 2.97 2.97 0 0 0 0.565 1.743 l -6.939 5.457 a 0.35 0.35 0 0 1 -0.587 -0.154 l -3.24 -8.776 c -0.097 -0.261 -0.337 -0.309 -0.536 -0.103 l -7.29 7.543 c -0.199 0.204 -0.475 0.172 -0.614 -0.073 l -4.167 -7.311 a 2.97 2.97 0 0 0 1.393 -2.52 C 47.971 1.331 46.64 0 44.998 0 s -2.976 1.332 -2.976 2.975 c 0 1.062 0.556 1.992 1.392 2.52 l -4.165 7.311 c -0.139 0.245 -0.415 0.277 -0.613 0.073 l -7.29 -7.543 c -0.198 -0.205 -0.438 -0.157 -0.536 0.103 l -3.241 8.776 c -0.096 0.262 -0.359 0.332 -0.586 0.154 l -6.767 -5.321 a 2.96 2.96 0 0 0 0.668 -1.878 a 2.98 2.98 0 0 0 -2.975 -2.976 a 2.98 2.98 0 0 0 -2.976 2.976 a 2.98 2.98 0 0 0 2.979 2.971 z m 72.002 62.471 l -6.934 -11.515 c -0.145 -0.24 -0.127 -0.625 0.043 -0.85 l 4.364 -5.916 c 0.17 -0.228 0.188 -0.61 0.043 -0.85 L 74.735 32.318 a 1.91 1.91 0 0 0 -0.743 -0.656 l -4.769 -2.147 c -0.265 -0.121 -0.632 -0.043 -0.816 0.173 c 0 0 -1.636 1.895 -3.667 3.064 c -4.423 2.547 -11.066 3.902 -19.741 3.902 c -8.656 0 -15.316 -1.385 -19.794 -3.99 c -1.846 -1.074 -3.588 -2.989 -3.588 -2.989 a 0.77 0.77 0 0 0 -0.828 -0.166 l -4.782 2.154 a 1.94 1.94 0 0 0 -0.744 0.656 L 2.572 53.482 a 0.83 0.83 0 0 0 0.042 0.85 l 4.365 5.916 a 0.83 0.83 0 0 1 0.042 0.85 L 0.089 72.613 a 0.74 0.74 0 0 0 0.08 0.819 l 22.157 24.865 c 0.188 0.214 0.562 0.293 0.829 0.182 l 4.7 -1.982 c 0.267 -0.113 0.486 0.022 0.486 0.3 v 4.629 a 0.88 0.88 0 0 0 0.477 0.726 l 15.705 7.315 a 1.31 1.31 0 0 0 0.955 0 l 15.705 -7.315 a 0.88 0.88 0 0 0 0.477 -0.726 v -4.629 c 0 -0.279 0.22 -0.413 0.487 -0.3 l 4.699 1.982 a 0.79 0.79 0 0 0 0.831 -0.182 l 22.155 -24.865 c 0.188 -0.21 0.224 -0.581 0.081 -0.821 z M 32.118 89.131 l -4.801 -5.101 a 0.53 0.53 0 0 1 0.122 -0.728 l 7.639 -7.233 c 0.231 -0.171 0.635 -0.209 0.897 -0.084 l 7.756 3.651 c 0.263 0.125 0.477 0.452 0.477 0.731 v 6.961 c 0 0.279 -0.237 0.539 -0.527 0.582 l -10.739 1.564 c -0.29 0.042 -0.661 -0.11 -0.826 -0.342 z m 22.293 6.005 c 0 0.277 -0.223 0.587 -0.497 0.685 l -8.417 3.023 c -0.274 0.096 -0.722 0.096 -0.997 0 l -8.418 -3.023 c -0.273 -0.098 -0.497 -0.408 -0.497 -0.685 v -3.772 c 0 -0.282 0.237 -0.54 0.527 -0.582 l 3.62 -0.529 c 0.698 1.497 2.429 3.492 5.267 3.492 s 4.568 -1.994 5.266 -3.492 l 3.621 0.529 c 0.287 0.041 0.524 0.3 0.524 0.582 v 3.772 z m 8.272 -11.108 l -4.801 5.101 a 0.94 0.94 0 0 1 -0.824 0.341 l -10.74 -1.564 c -0.289 -0.043 -0.527 -0.303 -0.527 -0.582 v -6.961 c 0 -0.279 0.214 -0.605 0.479 -0.726 l 7.766 -3.651 c 0.261 -0.123 0.663 -0.081 0.896 0.086 l 7.631 7.226 c 0.23 0.175 0.285 0.502 0.121 0.73 z m 9.829 -26.063 l -6.023 6.58 c -0.192 0.209 -0.219 0.57 -0.058 0.802 l 4.997 7.259 a 0.84 0.84 0 0 1 0.016 0.853 l -5.22 8.184 a 0.48 0.48 0 0 1 -0.696 0.125 l -9.702 -7.144 c -0.231 -0.171 -0.42 -0.536 -0.417 -0.812 l 0.078 -8.971 c 0.001 -0.277 0.22 -0.603 0.482 -0.726 l 9.774 -4.559 c 0.262 -0.121 0.364 -0.423 0.23 -0.668 l -2.131 -3.834 a 0.49 0.49 0 0 0 -0.694 -0.169 l -10.317 6.383 a 1.03 1.03 0 0 0 -0.443 0.781 v 10.264 c 0 0.277 -0.233 0.567 -0.513 0.641 l -6.362 1.692 c -0.282 0.076 -0.743 0.076 -1.025 0 l -6.361 -1.692 c -0.282 -0.075 -0.513 -0.365 -0.513 -0.641 v -10.26 c 0 -0.277 -0.201 -0.63 -0.445 -0.781 l -10.317 -6.383 a 0.49 0.49 0 0 0 -0.694 0.169 l -2.131 3.834 c -0.137 0.245 -0.033 0.548 0.23 0.668 l 9.773 4.559 c 0.263 0.123 0.48 0.449 0.482 0.726 l 0.078 8.971 a 1.14 1.14 0 0 1 -0.416 0.812 l -9.703 7.145 c -0.231 0.169 -0.544 0.113 -0.695 -0.125 l -5.222 -8.184 a 0.84 0.84 0 0 1 0.016 -0.853 l 4.998 -7.259 a 0.68 0.68 0 0 0 -0.058 -0.802 l -6.023 -6.58 a 0.72 0.72 0 0 1 -0.078 -0.816 l 5.001 -8.021 c 0.149 -0.239 0.474 -0.314 0.723 -0.166 l 14.355 8.477 c 0.249 0.146 0.452 0.038 0.452 -0.239 v -2.439 c 0 -0.278 -0.173 -0.661 -0.385 -0.853 l -11.137 -10.03 a 0.61 0.61 0 0 1 -0.098 -0.771 l 0.204 -0.3 c 0.159 -0.234 0.509 -0.333 0.778 -0.224 l 17.212 7.081 a 1.49 1.49 0 0 0 0.976 0 l 17.21 -7.083 a 0.67 0.67 0 0 1 0.776 0.224 l 0.205 0.3 a 0.61 0.61 0 0 1 -0.098 0.771 l -11.137 10.03 a 1.32 1.32 0 0 0 -0.385 0.853 v 2.439 c 0 0.278 0.204 0.385 0.452 0.239 l 14.355 -8.477 c 0.249 -0.148 0.575 -0.073 0.722 0.166 l 5.001 8.021 a 0.72 0.72 0 0 1 -0.079 0.815 z" stroke-linecap="round"/>
</g>
		<g transform="matrix(1 0 0 1 -165 -54.7785)">
<path style="stroke: none; stroke-width: 1; stroke-dasharray: none; stroke-linecap: butt; stroke-dashoffset: 0; stroke-linejoin: miter; stroke-miterlimit: 4; is-custom-font: none; font-file-url: none; fill: rgb(0,0,0); fill-rule: nonzero; opacity: 1;" transform=" translate(0, 0)" d="" stroke-linecap="round"/>
</g>
</g>
</g>
<g transform="matrix(1 0 0 1 613.0582 521.0555)" style="" id="622926">
		
<path xml:space="preserve" font-family="AttackGraffiti ZVJPZ" font-size="93" style="stroke: rgb(77,10,98); stroke-width: 5; stroke-dasharray: none; stroke-linecap: butt; stroke-dashoffset: 0; stroke-linejoin: miter; stroke-miterlimit: 4; is-custom-font: true; font-file-url: https://cdn.pixelied.com/user-assets/fonts/f9dcbca2-3c70-47b6-a73e-64672bf11c84.otf; fill: rgb(255,255,255); fill-rule: nonzero; opacity: 1; white-space: pre;" d="M-233.94-9.94C-233.94-14.77-237.29-21.28-237.29-26.68C-237.29-32.17-233.85-36.35-219.99-36.35L-219.06-36.35C-219.06-31.14-219.15-25.93-219.15-20.63C-219.15-19.61-219.06-16.91-218.22-16.91C-217.02-16.91-216.92-18.49-216.92-19.24C-216.92-25.00-217.48-30.58-217.67-36.26C-200.93-35.33-191.07-24.82-191.07-13.66C-191.07-8.17-193.67-4.08-199.35-4.08C-199.90-4.17-208.74-5.75-214.69-6.40C-217.57-16.82-222.69-23.79-227.80-23.79C-230.69-23.79-233.01-21.66-233.01-18.68C-233.01-18.40-233.01-17.94-232.92-17.66C-228.83 3.83-227.90-1.20-225.48 26.52C-225.20 29.96-222.41 32.84-218.60 32.84C-213.48 32.84-212.37 19.91-212.37 11.36C-212.37 9.22-212.55 6.99-212.74 4.94C-210.04 5.04-207.53 5.04-205.11 5.04C-189.39 5.04-182.05-5.47-182.05-17.66C-182.05-34.03-194.79-46.30-219.25-46.30C-235.24-46.30-250.12-37.93-250.12-22.31C-250.12-14.96-246.78-9.19-242.68-5.38C-241.66-4.45-240.36-4.08-239.15-4.08C-235.99-4.08-233.94-6.78-233.94-9.94ZM-245.10-22.96C-245.29-21.28-245.66-20.63-246.03-20.63C-246.50-20.63-246.96-21.75-246.96-23.24L-246.96-24.17C-245.29-37.28-233.66-42.77-219.53-43.42L-218.88-43.42C-217.39-43.42-216.09-43.23-216.09-42.95C-216.09-42.77-216.74-42.58-218.41-42.49C-232.36-41.56-243.61-35.98-245.10-22.96ZM-150.43-21.56L-150.33-21.66L-149.31-21.66C-131.73-21.66-121.69-7.80-121.69 4.66C-121.69 17.68-130.62 23.08-140.94 23.08C-159.17 23.08-171.91 9.13-171.91-4.26C-171.91-12.64-166.98-20.73-155.17-25.00C-154.43-23.24-152.66-21.56-150.43-21.56ZM-130.71-0.54C-129.22-0.54-128.39-3.43-128.39-5.75C-128.39-13.38-138.15-19.42-145.41-19.42C-147.73-19.42-153.68-19.14-153.68-17.19C-153.68-16.73-153.31-16.26-152.38-16.26C-150.71-16.26-149.13-16.63-147.64-16.63C-136.29-16.63-132.11-8.54-132.11-3.24C-132.11-1.29-131.73-0.54-130.71-0.54ZM-177.03-17.66C-177.30-17.29-177.49-17.19-177.68-17.19C-177.86-17.19-177.96-17.38-177.96-17.75C-177.96-18.12-177.86-18.49-177.68-18.87C-172.00-27.70-160.75-33.56-155.45-33.56C-154.98-33.56-154.61-33.28-154.61-32.72C-154.61-32.44-155.17-32.07-156.75-31.51C-166.98-28.17-171.07-25.28-177.03-17.66ZM-108.67 3.55C-108.67-13.38-120.48-31.79-140.85-36.26C-141.50-39.70-144.85-42.39-148.57-42.39C-159.91-42.39-168.84-39.33-175.26-34.21C-183.26-27.79-187.07-18.40-187.07-8.82C-187.07 11.36-170.24 32.84-140.38 32.84L-137.59 32.84C-130.43 32.84-123.74 31.26-118.53 27.63C-118.53 31.35-118.62 35.07-118.62 38.98C-118.62 40.00-118.53 42.70-117.69 42.70C-116.48 42.70-116.39 41.12-116.39 40.38C-116.39 35.63-116.67 31.07-116.95 26.43C-111.83 22.15-108.67 15.54-108.67 6.34ZM-143.82-36.44C-144.48-36.72-145.13-36.81-145.78-36.81C-170.14-36.81-181.49-22.03-181.49-6.03C-181.49 2.71-178.14 11.73-171.63 18.89C-179.91 11.36-184.28 1.04-184.28-8.82C-184.28-24.82-172.93-39.60-148.57-39.60C-146.43-39.60-144.57-38.21-143.82-36.44ZM-140.94-33.37C-132.94-31.51-126.34-27.33-121.50-21.93C-126.53-26.49-133.04-29.84-140.66-31.14C-140.66-31.33-140.57-31.51-140.57-31.70C-140.57-32.26-140.76-32.82-140.94-33.37ZM-56.50 26.52C-56.50 25.40-56.78 24.38-57.43 23.54C-63.94 14.61-73.24 5.50-75.28 1.13C-75.56 0.20-76.77-0.36-77.79-0.36C-79.28-0.36-80.58 0.85-80.58 2.25C-80.58 2.43-80.49 2.62-80.49 2.80C-81.33 1.32-81.79-0.36-83.93-0.36C-85.51-0.36-86.63 0.76-86.63 2.34C-86.63 2.71-86.54 3.08-86.35 3.45C-84.96 6.43-81.98 12.94-78.26 19.64C-79.93 19.45-81.89 19.36-85.98 19.36L-89.70 19.36C-89.79-11.52-91.65-22.86-97.51-41.56C-98.16-43.51-100.11-45.09-102.44-45.09C-103.56-45.09-104.67-44.72-105.51-44.07C-106.35-44.72-107.46-45.09-108.58-45.09C-111.37-45.09-113.69-42.77-113.69-39.98C-113.69-39.42-113.69-38.86-113.51-38.40C-109.97-27.05-109.41-17.75-109.41-4.08C-109.41 0.94-109.51 6.62-109.51 13.13L-109.51 21.40C-109.51 21.87-109.41 22.33-109.32 22.80C-112.58 24.47-114.53 26.89-114.53 30.33L-114.53 30.89C-114.53 33.68-112.20 36.00-109.41 36.00C-109.41 36.00-103.46 35.45-99.65 34.52L-99.65 36.00C-99.65 37.03-99.56 39.72-98.72 39.72C-97.51 39.72-97.42 38.14-97.42 37.40C-97.42 36.28-97.51 35.07-97.51 33.96C-90.54 32.28-82.17 30.24-72.96 30.24L-72.40 30.24L-70.63 30.89C-69.80 31.45-68.77 31.73-67.75 31.73C-66.63 31.73-65.61 31.35-64.68 30.70C-63.75 31.35-62.73 31.73-61.61 31.73C-58.82 31.73-56.50 29.31-56.50 26.52ZM-110.07-34.49C-110.16-35.05-110.16-35.51-110.16-35.98C-110.16-37.19-109.79-37.84-109.23-37.84C-108.58-37.84-107.74-37.00-107.37-35.23C-106.16-30.12-105.32-26.40-104.95-14.77L-104.95-14.50C-104.95-12.64-105.79-11.61-106.62-11.61C-107.46-11.61-108.21-12.54-108.30-14.50C-108.67-25.84-108.95-29.47-110.07-34.49ZM-61.61 28.94C-62.08 28.94-62.54 28.75-62.91 28.56C-62.64 27.91-62.45 27.17-62.45 26.43C-62.45 24.75-63.29 23.26-64.50 22.33C-67.19 18.71-70.26 15.17-73.05 11.92C-74.73 8.75-76.03 5.87-76.96 3.83C-76.40 4.76-75.75 5.78-74.91 6.80C-70.17 12.66-64.22 18.98-59.66 25.22C-59.38 25.59-59.29 25.96-59.29 26.52C-59.29 27.91-60.22 28.94-61.61 28.94ZM-95.84 19.64C-95.93-11.43-97.79-22.86-103.65-41.56C-103.65-41.65-103.74-41.74-103.74-41.84C-103.37-42.12-102.90-42.30-102.44-42.30C-101.51-42.30-100.49-41.56-100.21-40.72C-94.44-22.31-92.86-11.43-92.49 19.45C-93.60 19.54-94.72 19.54-95.84 19.64ZM-51.75 31.91C-48.13 31.91-44.87 28.84-41.71 25.31C-41.71 29.21-41.80 33.12-41.80 37.12C-41.80 38.14-41.71 40.84-40.87 40.84C-39.66 40.84-39.57 39.26-39.57 38.52C-39.57 33.49-39.94 28.47-40.22 23.54C-26.74 7.82-13.81-15.33-7.86-30.30C-7.67-30.68-7.67-31.14-7.67-31.51C-7.67-33.19-8.79-34.77-10.28-35.88C-10.28-36.26-10.18-36.72-10.18-37.00C-10.18-39.98-13.81-42.77-16.79-42.77C-18.65-42.77-20.13-41.56-20.79-39.88C-24.13-31.33-30.55-21.00-37.25-11.80C-43.48-16.17-50.17-21.28-60.31-29.00C-61.24-29.75-62.45-30.12-63.57-30.12C-65.70-30.12-68.31-28.35-68.31-25.84C-68.31-22.96-65.15-19.33-61.24-15.98C-56.31-11.71-49.52-7.33-43.11-4.08C-44.04-2.96-44.97-1.94-45.80-0.92C-45.99-0.73-53.89 6.80-57.43 10.99C-59.85 13.87-61.71 16.85-61.71 19.54C-61.71 21.31-60.68 23.08-59.19 24.47L-59.19 24.94C-59.19 28.19-55.57 31.91-51.75 31.91ZM-15.86-34.68C-15.86-32.91-19.67-23.05-21.81-20.63C-22.27-20.07-22.74-19.70-23.11-19.70C-23.39-19.70-23.58-19.89-23.67-20.07C-23.67-20.07-17.16-33.56-16.14-34.77C-16.04-34.86-16.04-34.95-15.95-34.95C-15.86-34.95-15.86-34.86-15.86-34.68ZM-32.88-8.82C-33.53-9.29-34.27-9.66-34.92-10.12C-28.13-19.42-21.62-29.93-18.18-38.86C-17.90-39.51-17.62-39.98-16.79-39.98C-16.14-39.98-15.11-39.60-14.18-38.86C-13.35-38.21-13.07-37.56-12.97-37.19C-13.44-37.28-13.90-37.37-14.28-37.37C-16.14-37.37-17.62-36.16-18.27-34.49C-21.34-26.68-26.83-17.38-32.88-8.82ZM-38.18-1.75C-39.94 0.48-41.62 2.62-43.29 4.57C-43.48 4.76-51.38 12.29-54.92 16.47C-56.31 18.15-57.52 19.82-58.26 21.40C-58.64 20.84-58.92 20.19-58.92 19.54C-58.92 19.17-58.82 18.61-58.64 18.15C-58.17 16.66-56.96 14.80-55.29 12.85C-52.31 9.41-45.80 2.99-44.22 1.50C-42.92 0.20-41.71-1.38-40.50-2.87C-39.66-2.50-38.92-2.13-38.18-1.75ZM36.04-43.98L36.13-43.98C37.06-43.98 37.90-42.95 37.90-42.12C37.90-41.65 37.62-41.19 36.78-41.19C25.06-40.63 12.42-36.35 2.56-28.35C1.35-27.33 0.33-26.96-0.23-26.96C-0.70-26.96-0.98-27.24-0.98-27.70C-0.98-28.44-0.23-29.65 1.26-30.86C11.21-39.05 24.13-43.42 36.04-43.98ZM35.29 3.64C35.48 4.01 35.85 4.29 36.13 4.57C37.53 7.92 38.55 12.57 38.55 18.98C38.55 24.56 30.74 28.84 21.90 29.21L20.41 29.21C13.16 29.21 6.00 27.08 0.88 22.70C-0.98 19.64-2.09 16.01-2.09 11.82C-2.09-21.47 27.11-27.05 44.78-30.21C47.10-30.58 48.96-32.82 48.96-35.33C48.96-38.02 47.01-39.79 44.59-40.63C44.41-44.35 40.50-46.30 36.87-46.30C12.79-45.65-16.23-29.19-16.23 3.55C-16.23 17.40-11.58 27.73-4.42 34.61C2.93 44.93 14.74 50.05 27.11 50.05C43.11 50.05 57.99 41.58 57.99 25.96C57.99 15.64 53.43 7.73 47.76 2.34C47.38 1.87 47.10 1.32 46.73 0.85C54.17-1.57 59.57-4.92 59.57-7.43C59.57-9.19 58.26-10.59 56.40-10.59L55.94-10.59C42.83-8.45 38.36-7.15 17.62-6.03C15.02-5.85 12.79-3.89 12.79-0.92C12.79 1.78 15.21 3.27 18.74 3.92C18.74 8.20 18.65 12.57 18.65 16.94C18.65 17.96 18.74 20.66 19.58 20.66C20.79 20.66 20.88 19.08 20.88 18.33C20.88 13.59 20.51 8.85 20.23 4.20C21.81 4.38 23.67 4.48 25.44 4.48C25.44 4.48 31.95 4.20 35.29 3.64ZM53.06 14.80C54.36 18.05 55.20 21.77 55.20 25.96C55.20 31.07 53.43 35.17 50.45 38.42C45.62 43.72 36.97 47.26 27.11 47.26C20.41 47.26 14.09 45.68 8.51 42.51C12.97 44.19 17.81 44.93 22.74 44.93C38.73 44.93 53.61 36.56 53.61 20.94C53.61 18.80 53.43 16.75 53.06 14.80ZM43.94-37.93C45.15-37.47 46.17-36.81 46.17-35.33C46.17-34.21 45.24-33.09 44.22-32.91C36.32-31.51 25.99-29.65 16.69-24.82C4.42-18.40-4.88-7.15-4.88 11.82C-4.88 13.13-4.79 14.34-4.60 15.54C-5.81 12.94-6.46 10.06-6.46 6.80C-6.46-26.49 22.74-32.07 40.41-35.23C41.90-35.51 43.20-36.54 43.94-37.93ZM83.75-21.56L83.84-21.66L84.86-21.66C102.44-21.66 112.48-7.80 112.48 4.66C112.48 17.68 103.56 23.08 93.23 23.08C75.00 23.08 62.26 9.13 62.26-4.26C62.26-12.64 67.19-20.73 79.00-25.00C79.75-23.24 81.51-21.56 83.75-21.56ZM103.46-0.54C104.95-0.54 105.79-3.43 105.79-5.75C105.79-13.38 96.02-19.42 88.77-19.42C86.44-19.42 80.49-19.14 80.49-17.19C80.49-16.73 80.86-16.26 81.79-16.26C83.47-16.26 85.05-16.63 86.54-16.63C97.88-16.63 102.07-8.54 102.07-3.24C102.07-1.29 102.44-0.54 103.46-0.54ZM57.15-17.66C56.87-17.29 56.68-17.19 56.50-17.19C56.31-17.19 56.22-17.38 56.22-17.75C56.22-18.12 56.31-18.49 56.50-18.87C62.17-27.70 73.42-33.56 78.72-33.56C79.19-33.56 79.56-33.28 79.56-32.72C79.56-32.44 79.00-32.07 77.42-31.51C67.19-28.17 63.10-25.28 57.15-17.66ZM125.50 3.55C125.50-13.38 113.69-31.79 93.33-36.26C92.67-39.70 89.33-42.39 85.61-42.39C74.26-42.39 65.33-39.33 58.92-34.21C50.92-27.79 47.10-18.40 47.10-8.82C47.10 11.36 63.94 32.84 93.79 32.84L96.58 32.84C103.74 32.84 110.44 31.26 115.65 27.63C115.65 31.35 115.55 35.07 115.55 38.98C115.55 40.00 115.65 42.70 116.48 42.70C117.69 42.70 117.78 41.12 117.78 40.38C117.78 35.63 117.51 31.07 117.23 26.43C122.34 22.15 125.50 15.54 125.50 6.34ZM90.35-36.44C89.70-36.72 89.05-36.81 88.40-36.81C64.03-36.81 52.68-22.03 52.68-6.03C52.68 2.71 56.03 11.73 62.54 18.89C54.27 11.36 49.89 1.04 49.89-8.82C49.89-24.82 61.24-39.60 85.61-39.60C87.75-39.60 89.61-38.21 90.35-36.44ZM93.23-33.37C101.23-31.51 107.83-27.33 112.67-21.93C107.65-26.49 101.14-29.84 93.51-31.14C93.51-31.33 93.60-31.51 93.60-31.70C93.60-32.26 93.42-32.82 93.23-33.37ZM127.27-5.29C128.39-6.40 129.04-7.71 129.04-9.19C129.04-10.59 128.57-11.98 127.46-13.01C125.13-15.15 123.27-18.21 123.27-22.31C123.27-26.03 124.76-28.63 126.62-30.68C130.25-34.40 136.38-36.35 143.08-36.35C145.78-36.35 148.57-35.98 151.36-35.33C150.80-35.33 150.15-35.42 149.59-35.42C143.73-35.42 138.06-34.03 133.78-31.05C130.15-28.54 126.99-24.54 126.99-18.59C126.99-13.57 129.22-9.85 132.01-7.24C132.48-6.78 132.48-5.47 132.66-4.73C132.39-3.80 131.46-3.15 130.43-3.15C128.94-3.15 128.01-4.45 127.27-5.29ZM117.97-22.96C117.78-21.28 117.41-20.63 117.04-20.63C116.58-20.63 116.11-21.75 116.11-23.24L116.11-24.17C117.78-37.28 129.41-42.77 143.55-43.42L144.20-43.42C145.68-43.42 146.99-43.23 146.99-42.95C146.99-42.77 146.34-42.58 144.66-42.49C130.71-41.56 119.46-35.98 117.97-22.96ZM131.08-13.01C130.34-14.59 129.78-16.45 129.78-18.59C129.78-27.79 139.08-32.63 149.59-32.63C152.47-32.63 155.36-32.26 158.24-31.51C158.24-26.68 158.15-21.93 158.15-17.01C158.15-15.98 158.24-13.29 159.08-13.29C160.29-13.29 160.38-14.87 160.38-15.61C160.38-20.82 160.01-25.93 159.73-31.14C160.94-30.77 162.15-30.30 163.35-29.84C169.03-25.56 172.93-19.05 172.93-10.31C172.93 3.73 160.01 17.40 148.57 25.03C148.20 9.96 142.71-23.79 135.27-23.79C132.39-23.79 130.06-21.66 130.06-18.68C130.06-16.63 130.80-14.77 131.08-13.01ZM138.06 30.70C133.41 32.94 133.13 32.75 126.15 33.96C123.83 34.33 121.97 36.47 121.97 38.98C121.97 42.61 125.41 44.65 128.94 44.93C130.15 47.44 133.22 48.65 136.20 48.65C161.87 48.65 189.02 19.54 189.02-6.87C189.02-23.14 180.00-33.65 168.56-38.77C161.40-43.88 152.47-46.30 143.82-46.30C127.83-46.30 112.95-37.93 112.95-22.31C112.95-14.96 116.30-9.19 120.39-5.38C121.41-4.45 122.71-4.08 123.92-4.08L124.67-4.08C125.04-3.61 125.41-3.15 125.88-2.68C125.88 2.71 125.78 8.01 125.78 13.50C125.78 14.52 125.88 17.22 126.71 17.22C127.92 17.22 128.01 15.64 128.01 14.89C128.01 9.41 127.55 4.01 127.27-1.38C128.20-0.64 129.32-0.36 130.43-0.36C130.43-0.36 132.57-0.54 133.41-1.20C135.45 9.31 136.85 17.31 138.06 30.70ZM177.40-29.37C182.61-24.17 186.23-16.82 186.23-6.87C186.23 6.80 178.33 21.68 166.89 32.19C157.77 40.56 146.71 45.86 136.20 45.86C134.80 45.86 133.41 45.49 132.48 44.84C151.45 43.35 170.61 26.61 178.61 7.45C180.84 3.08 182.14-1.48 182.23-6.22C182.42-7.71 182.51-9.10 182.51-10.59C182.51-18.03 180.56-24.26 177.40-29.37ZM181.68-23.05C181.68-12.36 189.86-6.50 199.44-2.22C207.34 2.52 217.85 5.31 225.66 8.57C228.45 10.43 230.22 12.66 230.22 15.45C230.22 20.10 227.52 21.87 223.53 21.87C210.60 21.87 183.26 3.64 183.26 3.64C180.47 3.64 178.14 5.96 178.14 8.75C178.14 14.61 181.68 19.45 187.07 23.08C187.07 26.43 186.98 29.87 186.98 33.31C186.98 34.33 187.07 37.03 187.91 37.03C189.12 37.03 189.21 35.45 189.21 34.70C189.21 31.17 189.02 27.63 188.84 24.10C190.42 25.03 192.09 25.96 193.95 26.70C201.95 31.82 213.76 34.42 224.36 34.42C237.75 34.42 249.38 30.24 249.38 21.12C249.38 12.57 242.68 7.92 234.31 4.20C227.43-0.08 217.67-2.68 209.58-6.22C204.46-9.38 200.93-13.57 200.93-19.61C200.93-23.24 202.97-24.54 205.95-24.54C207.34-24.54 209.11-24.07 210.88-23.42C218.22-18.87 225.20-12.45 225.20-12.45C229.48-12.45 230.87-21.84 230.87-24.91C230.87-26.96 230.41-28.35 229.48-28.35C228.45-28.35 226.87-26.58 224.83-22.12C222.04-24.91 205.11-36.07 193.30-36.07C186.70-36.07 181.68-30.58 181.68-23.05ZM194.88-34.30C196.74-34.30 196.93-33.84 196.93-32.91C196.93-32.72 196.74-32.63 196.28-32.63C194.60-32.63 194.97-32.72 193.86-32.72L193.58-32.72C190.42-32.63 186.60-32.44 186.60-24.72C186.60-24.35 186.70-23.61 186.70-22.96C186.70-22.03 186.60-21.19 186.05-21.19C185.30-21.19 185.02-25.56 185.02-26.40C185.02-31.98 188.37-34.30 194.70-34.30ZM198.14-19.61C198.14-16.63 198.97-13.94 200.18-11.71C196.83-14.50 194.70-18.03 194.70-22.77C194.70-26.40 196.74-27.79 199.72-27.79C200.83-27.79 202.14-27.51 203.53-27.05C200.18-26.31 198.14-23.24 198.14-19.61ZM241.66 11.64C244.82 14.24 246.59 17.03 246.59 21.12C246.59 23.26 245.75 24.94 243.99 26.52C239.99 30.14 232.27 31.63 224.36 31.63C224.27 31.63 219.53 31.54 217.11 31.26L218.13 31.26C231.52 31.26 243.15 26.98 243.15 17.87C243.15 15.45 242.59 13.50 241.66 11.64Z"/></g>
</svg>